<svg xmlns="http://www.w3.org/2000/svg" version="1.1" viewBox="0 0 135 136" height="20" width="20">
  <path fill="#828282" d="M92,90.999999L136,90.999999 136,94.999999 136,99.999999 101,99.999999 101,135 96,135 92,135 92,99.999999 92,91.999999z M0,90.999999L44,90.999999 44,91.999999 44,99.999999 44,135 40,135 35,135 35,99.999999 0,99.999999 0,94.999999z M92,0L96,0 101,0 101,33.999999 136,33.999999 136,38.999999 136,42.999999 101,42.999999 92,42.999999 92,33.999999z M52,0L85,0 85,49.999999 136,49.999999 136,83.999999 85,83.999999 85,135 52,135 52,83.999999 0,83.999999 0,49.999999 52,49.999999z M36,0L40,0 44,0 45,0 45,42.999999 44,42.999999 36,42.999999 0,42.999999 0,37.999999 0,33.999999 36,33.999999z"/>
</svg>
