<svg xmlns="http://www.w3.org/2000/svg" version="1.1" viewBox="0 0 236 236" height="16" width="16">
  <path fill="#828282" d="M40.403,209.90199 C36.35756,217.34662 31.58866,217.3757 24.90299,210.73532 L5.2355503,193.56722 C1.2355603,191.06695 -0.26416966,176.23226 11.73585,176.89932 L48.737,185.06647 50.73673,182.89963 82.07054,122.56161 C83.23696,118.38419 82.41507,114.48573 79.40381,110.89441 52.64017,85.601191 27.4652,60.822141 4.9018703,36.888344 -1.7645997,27.387947 -0.93159966,21.220826 3.2351003,15.38651 5.9019503,12.220443 15.23557,11.220553 23.23573,15.886548 47.07409,27.720138 106.58817,51.748171 119.9051,49.889421 120.87336,48.547721 122.59004,48.138111 125.23891,48.889531 L136.90551,33.221711 140.07259,31.554921 C142.93272,27.572805 146.2427,24.048681 150.07285,21.054147 130.80649,9.7783442 116.13484,-2.8054718 121.40543,0.55263616 122.53486,0.74600916 143.09114,10.741121 152.5729,17.887248 157.15633,14.360214 161.23245,12.888412 164.73987,13.720543 167.29359,16.496669 167.86816,20.633133 166.57293,26.054769 171.217,28.976807 193.92601,44.776441 193.92602,46.609901 192.75931,47.609981 169.69245,33.553584 165.23994,30.555196 164.07008,35.207428 162.3993,39.621146&#xD;&#xA;160.07314,43.722811 L159.7398,48.389811 151.40625,64.390961 C153.52075,66.343871 154.0742,68.399711 153.07296,70.558071 157.85011,82.544471 187.03638,110.2568 232.40834,148.39699 236.86635,152.90291 236.90936,158.05553 232.24201,163.89811 228.27187,168.12496 222.20597,169.41098 213.90808,167.56504 L114.90542,133.39592 C111.1848,132.74574 107.95232,134.17884 103.90513,136.72949 L63.57071,191.06673 62.90403,193.23355 86.738,223.40238 C88.90557,227.7712 88.50943,231.70113 84.59057,234.12384 82.40455,235.40302 79.48023,237.10007 74.40433,236.23664 L46.40358,224.73574 C42.5827,222.92071 40.88709,220.16178 41.07011,216.56849 L43.90352,212.5682 C39.77214,218.61291 33.40323,227.56928 30.90317,228.40267 30.40315,226.90256 36.96008,215.93276 40.403,209.90199 z"/>
</svg>
