<svg xmlns="http://www.w3.org/2000/svg" version="1.1" viewBox="0 0 292 143" height="16" width="32">
    <path fill="#828282" d="M19.038627,137.82604 C13.529304,134.39502 11.55395,127.45445 12.788627,117.32604 L8.2887897,116.57604 4.0388517,119.32604 C-0.031508265,119.61775 -0.84196826,117.31746 0.78890174,113.07604 L3.2889317,112.07604 3.5389317,108.82604 6.5388707,108.57604 11.538773,100.07604 12.538754,88.826036 6.0388807,84.826036 13.538734,83.826036 15.038705,64.826036 C16.840777,62.270615 19.967923,60.628539 25.03851,60.326036 L27.788457,58.826036 66.537702,58.826036 69.537645,49.076036 C78.202754,42.987822 88.133039,38.619912 99.037067,35.576036 L100.52577,20.151462 149.9009,-3.3157228E-08 C163.60159,6.48106 178.42853,8.777317 194.56182,6.219586 198.51135,5.761821 201.91683,6.476788 204.73459,8.458637 214.79863,10.6372 224.60634,11.611335 234.0123,10.697688 240.14143,9.102546 246.42573,10.322708 252.86913,14.42944 261.75949,15.976173 271.35482,16.254161 282.39497,13.931873 284.43809,14.900302 286.1499,16.063195 285.62025,18.409976 287.41457,28.041716 288.40887,37.745236 289.59023,47.020073 L291.82328,87.571776 C292.19992,91.083006 291.29119,93.541326 288.59776,94.537716 L276.9363,95.035286 277.18442,103.74271 258.57561,103.74271 258.57561,119.16728 253.8614,119.16728 C254.49913,134.37152 248.50358,142.11071 236.24516,142.80171 229.26332,142.86797 221.5711,142.47656 212.67414,141.309 208.68546,136.66615 206.86136,132.17999 206.71936,127.8747 L204.2382,127.12845 C201.10844,136.9016 194.21379,141.04673 184.38891,140.81155 180.46102,141.47917 175.26128,141.1558 168.75761,139.81641 162.49559,134.59106 160.76088,128.74011 162.5547,122.40156 L140.22426,119.66494 139.72803,123.39669 110.94657,124.14304 110.94657,118.91859 95.315259,118.91859 C93.084987,134.39416 85.232288,142.36066 70.999888,141.80668 53.166224,141.92859 35.67542,141.08267 19.038627,137.82604 z"/>
</svg>

